# Blender v3.2.1 OBJ File: 'kocsi.blend'
# www.blender.org
mtllib kocsi.mtl
o Cube_Cube.001
v -1.955878 -0.457718 3.516706
v -1.801819 0.943435 3.704030
v -1.693372 -0.558748 -3.838705
v -1.821010 0.206529 -3.593736
v 1.955878 -0.457718 3.516706
v 1.801819 0.943435 3.704030
v 1.693372 -0.558748 -3.838705
v 1.821010 0.206529 -3.593736
v -1.958467 -0.580328 0.000000
v -1.904766 0.099813 3.547444
v -1.798456 0.412004 0.000000
v -1.796186 -0.173028 -3.873521
v -0.000000 -0.552061 -3.838705
v 0.000000 0.264605 -3.593736
v 1.796186 -0.173028 -3.873521
v 1.958467 -0.580328 0.000000
v 1.798456 0.412004 0.000000
v 1.904766 0.099813 3.547444
v 0.000000 -0.457718 3.516706
v -0.000000 0.943549 3.704030
v 0.000000 0.981055 -0.577280
v 0.000000 -0.570378 0.000000
v 0.000000 0.100201 3.547444
v 1.901172 -0.059208 0.000000
v -0.000000 -0.145550 -3.874575
v -1.901172 -0.059208 0.000000
v -1.958467 -0.581629 1.466481
v -1.871572 0.378288 3.562814
v -1.798456 0.412004 -1.822695
v -1.755656 -0.356371 -3.890857
v -0.953133 -0.554254 -3.838705
v 0.961649 0.239031 -3.593736
v 1.755656 -0.356371 -3.890857
v 1.958467 -0.573235 -1.737376
v 1.798456 0.412004 2.185602
v 1.933373 -0.178759 3.532075
v 0.984948 -0.457718 3.516706
v -0.966074 0.943549 3.704030
v -1.958467 -0.573235 -1.737376
v -1.933373 -0.178759 3.532075
v -1.798456 0.412004 2.185602
v -1.818483 -0.007299 -3.796130
v 0.953133 -0.554254 -3.838705
v -0.961649 0.239031 -3.593736
v 1.818483 -0.007299 -3.796130
v 1.958467 -0.581629 1.466481
v 1.798456 0.412004 -1.822695
v 1.871572 0.378288 3.562814
v -0.984948 -0.457718 3.516706
v 0.966074 0.943549 3.704030
v 0.000000 0.545955 2.185602
v 0.000000 0.545955 -2.457678
v 0.966074 0.861641 -0.577280
v -0.966074 0.861641 -0.577280
v 0.000000 -0.570378 2.185602
v 0.000000 -0.570378 -1.822695
v -0.985436 -0.574260 0.000000
v 0.985436 -0.574260 0.000000
v -0.974917 0.100201 3.547444
v 0.974917 0.100201 3.547444
v 0.000000 -0.178759 3.532075
v 0.000000 0.379160 3.562814
v 1.901848 0.039396 1.572857
v 1.902034 0.027667 -1.838812
v 1.935077 -0.316269 0.000000
v 1.855877 0.186073 0.000000
v 0.955994 -0.158788 -3.872887
v -0.955994 -0.158788 -3.872887
v -0.000000 -0.340720 -3.890612
v -0.000000 0.033767 -3.796130
v -1.902034 0.027667 -1.838812
v -1.901848 0.039396 1.572857
v -1.935077 -0.316269 0.000000
v -1.855877 0.186073 0.000000
v -1.935077 -0.267215 1.466481
v -1.935077 -0.269080 -1.737376
v -0.959500 0.014061 -3.796130
v -0.953160 -0.347712 -3.888936
v 0.953160 -0.347712 -3.888936
v 1.935077 -0.269080 -1.737376
v 1.935077 -0.267215 1.466481
v 0.970047 0.379160 3.562814
v 0.980369 -0.178759 3.532075
v -0.980369 -0.178759 3.532075
v 0.985436 -0.574260 -1.822695
v -0.985436 -0.574260 -1.822695
v -0.985436 -0.574260 2.185602
v -1.010896 0.509719 -2.034014
v 1.010896 0.509719 -2.034014
v 0.966074 0.509719 2.185602
v -0.966074 0.509719 2.185602
v 0.985436 -0.574260 2.185602
v -0.970047 0.379160 3.562814
v 0.959500 0.014061 -3.796130
v -1.961074 -0.569781 2.859092
v -1.847871 0.517721 3.570498
v -1.780819 0.297303 -3.223073
v -1.727445 -0.455085 -3.874217
v -1.362098 -0.557330 -3.838705
v 1.395963 0.218332 -3.593736
v 1.727445 -0.455085 -3.874217
v 1.825456 -0.558466 -3.280912
v 1.801819 0.561381 3.128247
v 1.945606 -0.318238 3.524390
v 1.470499 -0.457718 3.516706
v -1.408525 0.943536 3.704030
v -1.958467 -0.580328 -1.002074
v -1.919543 -0.039397 3.539760
v -1.798456 0.412004 1.002074
v -1.809376 -0.088058 -3.841795
v 0.489616 -0.552072 -3.838705
v -0.491288 0.256385 -3.593736
v 1.809376 -0.088058 -3.841795
v 1.958467 -0.580328 1.002074
v 1.798456 0.412004 -1.002074
v 1.890245 0.239007 3.555129
v -0.493526 -0.457718 3.516706
v 0.491040 0.943549 3.704030
v 0.000000 0.572769 3.128247
v 0.000000 0.981055 -1.207133
v 1.408303 0.472661 0.000000
v -0.491040 0.928712 -0.577280
v 0.000000 -0.570378 3.360686
v 0.000000 -0.570378 -1.002074
v -1.472058 -0.579310 0.000000
v 0.493526 -0.570487 0.000000
v -1.440741 0.100002 3.547444
v 0.492467 0.100201 3.547444
v 0.000000 -0.318238 3.524390
v 0.000000 0.239680 3.555129
v 1.906373 0.091509 2.752716
v 1.901172 -0.059208 -1.002074
v 1.948086 -0.447429 0.000000
v 1.880075 0.065847 0.000000
v 1.380137 -0.168808 -3.871838
v -0.490673 -0.149051 -3.874053
v -0.000000 -0.444345 -3.873501
v -0.000000 -0.053932 -3.842533
v -1.829330 -0.014138 -3.114291
v -1.901172 -0.059208 1.002074
v -1.948086 -0.447429 0.000000
v -1.880075 0.065847 0.000000
v -1.958467 -0.580328 1.002074
v -1.890245 0.239007 3.555129
v -1.798456 0.412004 -1.002074
v -1.778428 -0.262411 -3.890203
v -0.489616 -0.552072 -3.838705
v 0.491288 0.256385 -3.593736
v 1.778428 -0.262411 -3.890203
v 1.958467 -0.580328 -1.002074
v 1.798456 0.412004 1.002074
v 1.919543 -0.039397 3.539760
v 0.493526 -0.457718 3.516706
v -0.491040 0.943549 3.704030
v -1.825456 -0.558466 -3.280912
v -1.945606 -0.318238 3.524390
v -1.801819 0.561381 3.128247
v -1.824080 0.082923 -3.716745
v 1.362098 -0.557330 -3.838705
v -1.395963 0.218332 -3.593736
v 1.824080 0.082923 -3.716745
v 1.961074 -0.569781 2.859092
v 1.780819 0.297303 -3.223073
v 1.847871 0.517721 3.570498
v -1.470499 -0.457718 3.516706
v 1.408525 0.943536 3.704030
v 0.000000 0.981055 0.187967
v 0.000000 0.409309 -3.223073
v 0.491040 0.928712 -0.577280
v -1.408303 0.472661 0.000000
v 0.000000 -0.570378 1.002074
v 0.000000 -0.557351 -3.536308
v -0.493526 -0.570487 0.000000
v 1.472058 -0.579310 0.000000
v -0.492467 0.100201 3.547444
v 1.440741 0.100002 3.547444
v 0.000000 -0.039279 3.539760
v 0.000000 0.518639 3.570498
v 1.901172 -0.059208 1.002074
v 1.829330 -0.014138 -3.114291
v 1.919438 -0.186859 0.000000
v 1.828648 0.301430 0.000000
v 0.490673 -0.149051 -3.874053
v -1.380137 -0.168808 -3.871838
v -0.000000 -0.241135 -3.890767
v -0.000000 0.131173 -3.716745
v -1.901172 -0.059208 -1.002074
v -1.906373 0.091509 2.752716
v -1.919438 -0.186859 0.000000
v -1.828648 0.301430 0.000000
v -1.855877 0.186073 1.002074
v -1.847077 0.249435 1.825666
v -1.828648 0.301430 2.185602
v -1.935077 -0.316269 1.002074
v -1.939746 -0.237497 2.859092
v -1.948086 -0.423386 1.466481
v -1.919510 -0.113071 1.507855
v -1.819789 -0.283397 -3.247510
v -1.935077 -0.316269 -1.002074
v -1.948086 -0.420156 -1.737376
v -1.919471 -0.119995 -1.760949
v -0.491206 0.027698 -3.796130
v -1.391651 -0.000762 -3.796130
v -0.957761 -0.070462 -3.841714
v -0.961121 0.108543 -3.716745
v -0.490031 -0.341886 -3.890211
v -1.366356 -0.353822 -3.887883
v -0.952654 -0.448688 -3.872535
v -0.954375 -0.251141 -3.888812
v 1.366356 -0.353822 -3.887883
v 0.490031 -0.341886 -3.890211
v 0.952654 -0.448688 -3.872535
v 0.954375 -0.251141 -3.888812
v 1.855877 0.186073 -1.002074
v 1.825936 0.224116 -2.023772
v 1.828648 0.301430 -1.822695
v 1.935077 -0.316269 -1.002074
v 1.819789 -0.283397 -3.247510
v 1.948086 -0.420156 -1.737376
v 1.919471 -0.119995 -1.760949
v 1.939746 -0.237497 2.859092
v 1.935077 -0.316269 1.002074
v 1.948086 -0.423386 1.466481
v 1.919510 -0.113071 1.507855
v 0.491688 0.379160 3.562814
v 1.424487 0.378634 3.562814
v 0.972563 0.239680 3.555129
v 0.967746 0.518639 3.570498
v 0.493231 -0.178759 3.532075
v 1.456997 -0.178759 3.532075
v 0.982887 -0.318238 3.524390
v 0.977622 -0.039279 3.539760
v -1.456997 -0.178759 3.532075
v -0.493231 -0.178759 3.532075
v -0.982887 -0.318238 3.524390
v -0.977622 -0.039279 3.539760
v 0.985436 -0.574260 -1.002074
v 0.957683 -0.562736 -3.536323
v 0.493526 -0.570487 -1.822695
v 1.472058 -0.572062 -1.737376
v -0.985436 -0.574260 -1.002074
v -0.957683 -0.562736 -3.536323
v -1.472058 -0.572062 -1.737376
v -0.493526 -0.570487 -1.822695
v -0.985901 -0.570378 3.360686
v -0.985436 -0.574260 1.002074
v -1.472058 -0.580416 1.466481
v -0.493526 -0.570487 2.185602
v -0.966074 0.806087 -1.342527
v -0.963711 0.378254 -3.223073
v -0.491040 0.534482 -2.375416
v 0.966074 0.806087 -1.342527
v 0.963711 0.378254 -3.223073
v 0.491040 0.534482 -2.375416
v 0.966074 0.568521 3.128247
v 0.966074 0.861641 0.187967
v 0.491040 0.534482 2.185602
v -0.966074 0.568521 3.128247
v -0.966074 0.861641 0.187967
v -0.491040 0.534482 2.185602
v 0.985901 -0.570378 3.360686
v 0.985436 -0.574260 1.002074
v 0.493526 -0.570487 2.185602
v 1.472058 -0.580416 1.466481
v -1.424487 0.378634 3.562814
v -0.491688 0.379160 3.562814
v -0.972563 0.239680 3.555129
v -0.967746 0.518639 3.570498
v 1.855877 0.186073 1.002074
v 1.847077 0.249435 1.825666
v 1.828648 0.301430 2.185602
v 1.391651 -0.000762 -3.796130
v 0.491206 0.027698 -3.796130
v 0.957761 -0.070462 -3.841714
v 0.961121 0.108543 -3.716745
v -1.855877 0.186073 -1.002074
v -1.825936 0.224116 -2.023772
v -1.828648 0.301430 -1.822695
v -1.828648 0.301430 -1.002074
v -1.880075 0.065847 -1.002074
v -1.805264 0.180543 -2.933530
v 0.491358 0.124013 -3.716745
v 0.490969 -0.058753 -3.842279
v 1.386469 -0.082778 -3.841132
v 1.828648 0.301430 1.002074
v 1.880075 0.065847 1.002074
v 1.840122 0.306009 2.499907
v -0.491313 0.518639 3.570498
v -0.492095 0.239680 3.555129
v -1.433187 0.239286 3.555129
v 1.472058 -0.579310 1.002074
v 0.493526 -0.570487 1.002074
v 0.493526 -0.570378 3.360686
v -1.408303 0.472661 1.002074
v -0.491040 0.928712 0.187967
v -0.491040 0.572573 3.128247
v 0.491040 0.928712 0.187967
v 1.408303 0.472661 1.002074
v 1.408525 0.563381 3.128247
v 0.490831 0.399277 -3.223073
v 1.397622 0.347404 -3.223073
v 1.408303 0.472661 -1.002074
v -1.397622 0.347404 -3.223073
v -0.490831 0.399277 -3.223073
v -0.491040 0.940927 -1.250408
v -0.493526 -0.570487 1.002074
v -1.472058 -0.579310 1.002074
v -1.473620 -0.569781 2.859092
v -0.490594 -0.557847 -3.536310
v -1.381755 -0.568325 -3.536377
v -1.472058 -0.579310 -1.002074
v 1.381755 -0.568325 -3.536377
v 0.490594 -0.557847 -3.536310
v 0.493526 -0.570487 -1.002074
v -0.492870 -0.039279 3.539760
v -0.493470 -0.318238 3.524390
v -1.464302 -0.318238 3.524390
v 1.448955 -0.039313 3.539760
v 1.464302 -0.318238 3.524390
v 0.493470 -0.318238 3.524390
v 1.415688 0.518099 3.570498
v 1.433187 0.239286 3.555129
v 0.492095 0.239680 3.555129
v 1.919438 -0.186859 1.002074
v 1.948086 -0.447429 1.002074
v 1.951651 -0.403534 2.859092
v 1.823222 -0.150469 -3.204765
v 1.820425 -0.418643 -3.266040
v 1.948086 -0.447429 -1.002074
v 1.805264 0.180543 -2.933530
v 1.880075 0.065847 -1.002074
v 0.490349 -0.243381 -3.890213
v 0.489747 -0.444725 -3.873336
v 1.361867 -0.453180 -3.871896
v -1.373081 -0.259091 -3.887618
v -1.361867 -0.453180 -3.871896
v -0.489747 -0.444725 -3.873336
v -1.395679 0.091035 -3.716745
v -1.386469 -0.082778 -3.841132
v -0.490969 -0.058753 -3.842279
v -1.919438 -0.186859 -1.002074
v -1.948086 -0.447429 -1.002074
v -1.820425 -0.418643 -3.266040
v -1.924659 -0.072400 2.817718
v -1.951651 -0.403534 2.859092
v -1.948086 -0.447429 1.002074
v -1.851978 0.402758 3.360686
v -1.840122 0.306009 2.499907
v -1.880075 0.065847 1.002074
v -1.828648 0.301430 1.002074
v -1.919438 -0.186859 1.002074
v -1.823222 -0.150469 -3.204765
v -0.491358 0.124013 -3.716745
v -0.490349 -0.243381 -3.890213
v 1.373081 -0.259091 -3.887618
v 1.828648 0.301430 -1.002074
v 1.919438 -0.186859 -1.002074
v 1.924659 -0.072400 2.817718
v 0.491313 0.518639 3.570498
v 0.492870 -0.039279 3.539760
v -1.448955 -0.039313 3.539760
v 1.472058 -0.579310 -1.002074
v -0.493526 -0.570487 -1.002074
v -0.493526 -0.570378 3.360686
v -1.408303 0.472661 -1.002074
v 0.491040 0.940927 -1.250408
v 0.491040 0.572573 3.128247
v -1.408525 0.563381 3.128247
v 1.473620 -0.569781 2.859092
v -1.415688 0.518099 3.570498
v 1.851978 0.402758 3.360686
v 1.395679 0.091035 -3.716745
v 1.421412 0.047204 1.572857
v 1.421508 0.035190 -1.838812
v -1.421508 0.035190 -1.838812
v -1.421412 0.047204 1.572857
v -1.439624 -0.263821 1.466481
v -1.439624 -0.265797 -1.737377
v 1.439624 -0.265797 -1.737377
v 1.439624 -0.263821 1.466481
v 1.423760 0.092371 2.752716
v -1.381678 -0.003670 -3.114324
v 1.381678 -0.003670 -3.114324
v -1.423760 0.092371 2.752716
v -1.412972 0.261054 1.825666
v -1.442320 -0.237368 2.859092
v -1.447181 -0.421185 1.466481
v -1.430839 -0.107899 1.507855
v -1.376101 -0.277699 -3.247532
v -1.447181 -0.418026 -1.737377
v -1.430817 -0.114986 -1.760949
v 1.412763 0.235507 -2.023772
v 1.376101 -0.277699 -3.247532
v 1.447181 -0.418026 -1.737377
v 1.430817 -0.114986 -1.760949
v 1.442320 -0.237368 2.859092
v 1.447181 -0.421185 1.466481
v 1.430839 -0.107899 1.507855
v 1.412972 0.261054 1.825666
v -1.412763 0.235507 -2.023772
v -1.389389 0.197505 -2.933561
v 1.409758 0.308242 2.499907
v 1.449269 -0.403534 2.859092
v 1.377644 -0.142782 -3.204793
v 1.377153 -0.414479 -3.266055
v 1.389389 0.197505 -2.933561
v -1.377153 -0.414479 -3.266055
v -1.433704 -0.071968 2.817718
v -1.449269 -0.403534 2.859092
v -1.409758 0.308242 2.499907
v -1.377644 -0.142782 -3.204793
v 1.433704 -0.071968 2.817718
v 1.846007 -0.406758 -3.084125
v 1.846007 0.033351 -2.901826
v 1.846007 0.215649 -2.461717
v 1.846007 0.033350 -2.021609
v 1.846007 -0.406758 -1.839309
v 1.846007 -0.846867 -2.021609
v 1.846007 -1.029166 -2.461717
v 1.846007 -0.846867 -2.901826
v 1.429232 -0.406758 -3.084125
v 1.429232 0.033351 -2.901826
v 1.429232 0.215649 -2.461717
v 1.429232 0.033350 -2.021609
v 1.429232 -0.406758 -1.839309
v 1.429232 -0.846867 -2.021609
v 1.429232 -1.029166 -2.461717
v 1.429232 -0.846867 -2.901826
v 1.846007 -0.406758 -2.842542
v 1.846007 -0.137474 -2.731001
v 1.846007 -0.025933 -2.461717
v 1.846007 -0.137474 -2.192433
v 1.846007 -0.406758 -2.080892
v 1.846007 -0.676042 -2.192433
v 1.846007 -0.787584 -2.461717
v 1.846007 -0.676042 -2.731001
v 1.709751 -0.406758 -2.842542
v 1.709751 -0.137474 -2.731001
v 1.709751 -0.025933 -2.461717
v 1.709751 -0.137474 -2.192433
v 1.709751 -0.406758 -2.080892
v 1.709751 -0.676042 -2.192433
v 1.709751 -0.787584 -2.461717
v 1.709751 -0.676042 -2.731001
v 1.926336 -0.420367 1.558814
v 1.926336 0.019742 1.741113
v 1.926336 0.202040 2.181222
v 1.926336 0.019741 2.621330
v 1.926336 -0.420367 2.803629
v 1.926336 -0.860476 2.621330
v 1.926336 -1.042775 2.181222
v 1.926336 -0.860476 1.741113
v 1.390482 -0.420367 1.558814
v 1.390482 0.019742 1.741113
v 1.390482 0.202040 2.181222
v 1.390482 0.019741 2.621330
v 1.390482 -0.420367 2.803629
v 1.390482 -0.860476 2.621330
v 1.390482 -1.042775 2.181222
v 1.390482 -0.860476 1.741113
v 1.926336 -0.420367 1.800396
v 1.926336 -0.151083 1.911938
v 1.926336 -0.039542 2.181222
v 1.926336 -0.151083 2.450506
v 1.926336 -0.420367 2.562047
v 1.926336 -0.689651 2.450506
v 1.926336 -0.801193 2.181222
v 1.926336 -0.689651 1.911938
v 1.751149 -0.420367 1.800396
v 1.751149 -0.151083 1.911938
v 1.751149 -0.039542 2.181222
v 1.751149 -0.151083 2.450506
v 1.751149 -0.420367 2.562047
v 1.751149 -0.689651 2.450506
v 1.751149 -0.801193 2.181222
v 1.751149 -0.689651 1.911938
v -1.958650 -0.397685 1.575326
v -1.958650 0.042423 1.757625
v -1.958650 0.224722 2.197734
v -1.958650 0.042423 2.637843
v -1.958650 -0.397686 2.820142
v -1.958650 -0.837794 2.637843
v -1.958650 -1.020093 2.197734
v -1.958650 -0.837794 1.757625
v -1.422796 -0.397685 1.575326
v -1.422796 0.042423 1.757625
v -1.422796 0.224722 2.197734
v -1.422796 0.042423 2.637843
v -1.422796 -0.397686 2.820142
v -1.422796 -0.837794 2.637843
v -1.422796 -1.020093 2.197734
v -1.422796 -0.837794 1.757625
v -1.958650 -0.397685 1.816908
v -1.958650 -0.128401 1.928450
v -1.958650 -0.016860 2.197734
v -1.958650 -0.128401 2.467018
v -1.958650 -0.397686 2.578559
v -1.958650 -0.666970 2.467018
v -1.958650 -0.778511 2.197734
v -1.958650 -0.666970 1.928450
v -1.783463 -0.397685 1.816908
v -1.783463 -0.128401 1.928450
v -1.783463 -0.016860 2.197734
v -1.783463 -0.128401 2.467018
v -1.783463 -0.397686 2.578559
v -1.783463 -0.666970 2.467018
v -1.783463 -0.778511 2.197734
v -1.783463 -0.666970 1.928450
v -1.821818 -0.420367 -3.090861
v -1.821818 0.019742 -2.908458
v -1.821818 0.202040 -2.468100
v -1.821818 0.019741 -2.027742
v -1.821818 -0.420367 -1.845340
v -1.821818 -0.860476 -2.027742
v -1.821818 -1.042775 -2.468100
v -1.821818 -0.860476 -2.908458
v -1.442247 -0.420367 -3.090861
v -1.442247 0.019742 -2.908458
v -1.442247 0.202040 -2.468100
v -1.442247 0.019741 -2.027742
v -1.442247 -0.420367 -1.845340
v -1.442247 -0.860476 -2.027742
v -1.442247 -1.042775 -2.468100
v -1.442247 -0.860476 -2.908458
v -1.821818 -0.420367 -2.849142
v -1.821818 -0.151083 -2.737537
v -1.821818 -0.039542 -2.468100
v -1.821818 -0.151083 -2.198664
v -1.821818 -0.420367 -2.087059
v -1.821818 -0.689651 -2.198664
v -1.821818 -0.801193 -2.468100
v -1.821818 -0.689651 -2.737537
v -1.697725 -0.420367 -2.849142
v -1.697725 -0.151083 -2.737537
v -1.697725 -0.039542 -2.468100
v -1.697725 -0.151083 -2.198664
v -1.697725 -0.420367 -2.087059
v -1.697725 -0.689651 -2.198664
v -1.697725 -0.801193 -2.468100
v -1.697725 -0.689651 -2.737537
vt 0.875000 0.500000
vt 0.531250 0.218750
vt 0.000000 0.000000
vt 0.593750 0.468750
vt 0.625000 0.468750
vt 0.625000 0.500000
vt 0.593750 0.500000
vt 0.593750 0.718750
vt 0.625000 0.718750
vt 0.625000 0.750000
vt 0.593750 0.750000
vt 0.593750 0.968750
vt 0.625000 0.968750
vt 0.625000 1.000000
vt 0.593750 1.000000
vt 0.343750 0.718750
vt 0.375000 0.718750
vt 0.375000 0.750000
vt 0.343750 0.750000
vt 0.843750 0.718750
vt 0.875000 0.718750
vt 0.875000 0.750000
vt 0.843750 0.750000
vt 0.718750 0.718750
vt 0.750000 0.718750
vt 0.750000 0.750000
vt 0.718750 0.750000
vt 0.718750 0.593750
vt 0.750000 0.593750
vt 0.750000 0.625000
vt 0.718750 0.625000
vt 0.843750 0.593750
vt 0.875000 0.593750
vt 0.875000 0.625000
vt 0.843750 0.625000
vt 0.218750 0.718750
vt 0.250000 0.718750
vt 0.250000 0.750000
vt 0.218750 0.750000
vt 0.218750 0.593750
vt 0.250000 0.593750
vt 0.250000 0.625000
vt 0.218750 0.625000
vt 0.343750 0.593750
vt 0.375000 0.593750
vt 0.375000 0.625000
vt 0.343750 0.625000
vt 0.468750 0.968750
vt 0.500000 0.968750
vt 0.500000 1.000000
vt 0.468750 1.000000
vt 0.468750 0.843750
vt 0.500000 0.843750
vt 0.500000 0.875000
vt 0.468750 0.875000
vt 0.593750 0.843750
vt 0.625000 0.843750
vt 0.625000 0.875000
vt 0.593750 0.875000
vt 0.468750 0.718750
vt 0.500000 0.718750
vt 0.500000 0.750000
vt 0.468750 0.750000
vt 0.468750 0.593750
vt 0.500000 0.593750
vt 0.500000 0.625000
vt 0.468750 0.625000
vt 0.593750 0.593750
vt 0.625000 0.593750
vt 0.625000 0.625000
vt 0.593750 0.625000
vt 0.468750 0.468750
vt 0.500000 0.468750
vt 0.500000 0.500000
vt 0.468750 0.500000
vt 0.468750 0.343750
vt 0.500000 0.343750
vt 0.500000 0.375000
vt 0.468750 0.375000
vt 0.593750 0.343750
vt 0.625000 0.343750
vt 0.625000 0.375000
vt 0.593750 0.375000
vt 0.468750 0.218750
vt 0.500000 0.218750
vt 0.500000 0.250000
vt 0.468750 0.250000
vt 0.468750 0.093750
vt 0.500000 0.093750
vt 0.500000 0.125000
vt 0.468750 0.125000
vt 0.593750 0.093750
vt 0.625000 0.093750
vt 0.625000 0.125000
vt 0.593750 0.125000
vt 0.531250 0.093750
vt 0.562500 0.093750
vt 0.562500 0.125000
vt 0.531250 0.125000
vt 0.593750 0.031250
vt 0.625000 0.031250
vt 0.625000 0.062500
vt 0.593750 0.062500
vt 0.406250 0.093750
vt 0.437500 0.093750
vt 0.437500 0.125000
vt 0.406250 0.125000
vt 0.406250 0.218750
vt 0.437500 0.218750
vt 0.437500 0.250000
vt 0.406250 0.250000
vt 0.406250 0.156250
vt 0.437500 0.156250
vt 0.437500 0.187500
vt 0.406250 0.187500
vt 0.468750 0.156250
vt 0.500000 0.156250
vt 0.500000 0.187500
vt 0.468750 0.187500
vt 0.531250 0.343750
vt 0.562500 0.343750
vt 0.562500 0.375000
vt 0.531250 0.375000
vt 0.531250 0.281250
vt 0.562500 0.281250
vt 0.562500 0.312500
vt 0.531250 0.312500
vt 0.593750 0.281250
vt 0.625000 0.281250
vt 0.625000 0.312500
vt 0.593750 0.312500
vt 0.406250 0.343750
vt 0.437500 0.343750
vt 0.437500 0.375000
vt 0.406250 0.375000
vt 0.406250 0.281250
vt 0.437500 0.281250
vt 0.437500 0.312500
vt 0.406250 0.312500
vt 0.468750 0.281250
vt 0.500000 0.281250
vt 0.500000 0.312500
vt 0.468750 0.312500
vt 0.406250 0.468750
vt 0.437500 0.468750
vt 0.437500 0.500000
vt 0.406250 0.500000
vt 0.406250 0.406250
vt 0.437500 0.406250
vt 0.437500 0.437500
vt 0.406250 0.437500
vt 0.468750 0.406250
vt 0.500000 0.406250
vt 0.500000 0.437500
vt 0.468750 0.437500
vt 0.531250 0.593750
vt 0.562500 0.593750
vt 0.562500 0.625000
vt 0.531250 0.625000
vt 0.593750 0.562500
vt 0.531250 0.531250
vt 0.000000 0.000000
vt 0.625000 0.531250
vt 0.406250 0.593750
vt 0.437500 0.593750
vt 0.437500 0.625000
vt 0.406250 0.625000
vt 0.406250 0.718750
vt 0.437500 0.718750
vt 0.437500 0.750000
vt 0.406250 0.750000
vt 0.406250 0.656250
vt 0.437500 0.656250
vt 0.437500 0.687500
vt 0.406250 0.687500
vt 0.468750 0.656250
vt 0.500000 0.656250
vt 0.500000 0.687500
vt 0.468750 0.687500
vt 0.531250 0.843750
vt 0.562500 0.843750
vt 0.562500 0.875000
vt 0.531250 0.875000
vt 0.531250 0.781250
vt 0.562500 0.781250
vt 0.562500 0.812500
vt 0.531250 0.812500
vt 0.593750 0.781250
vt 0.625000 0.781250
vt 0.625000 0.812500
vt 0.593750 0.812500
vt 0.406250 0.843750
vt 0.437500 0.843750
vt 0.437500 0.875000
vt 0.406250 0.875000
vt 0.406250 0.781250
vt 0.437500 0.781250
vt 0.437500 0.812500
vt 0.406250 0.812500
vt 0.468750 0.781250
vt 0.500000 0.781250
vt 0.500000 0.812500
vt 0.468750 0.812500
vt 0.406250 0.968750
vt 0.437500 0.968750
vt 0.437500 1.000000
vt 0.406250 1.000000
vt 0.406250 0.906250
vt 0.437500 0.906250
vt 0.437500 0.937500
vt 0.406250 0.937500
vt 0.468750 0.906250
vt 0.500000 0.906250
vt 0.500000 0.937500
vt 0.468750 0.937500
vt 0.281250 0.593750
vt 0.312500 0.593750
vt 0.312500 0.625000
vt 0.281250 0.625000
vt 0.281250 0.531250
vt 0.312500 0.531250
vt 0.312500 0.562500
vt 0.281250 0.562500
vt 0.156250 0.593750
vt 0.187500 0.593750
vt 0.187500 0.625000
vt 0.156250 0.625000
vt 0.156250 0.531250
vt 0.187500 0.531250
vt 0.187500 0.562500
vt 0.156250 0.562500
vt 0.218750 0.531250
vt 0.250000 0.531250
vt 0.250000 0.562500
vt 0.218750 0.562500
vt 0.156250 0.718750
vt 0.187500 0.718750
vt 0.187500 0.750000
vt 0.156250 0.750000
vt 0.156250 0.656250
vt 0.187500 0.656250
vt 0.187500 0.687500
vt 0.156250 0.687500
vt 0.218750 0.656250
vt 0.250000 0.656250
vt 0.250000 0.687500
vt 0.218750 0.687500
vt 0.781250 0.593750
vt 0.812500 0.593750
vt 0.812500 0.625000
vt 0.781250 0.625000
vt 0.781250 0.531250
vt 0.812500 0.531250
vt 0.812500 0.562500
vt 0.781250 0.562500
vt 0.687500 0.562500
vt 0.656250 0.531250
vt 0.687500 0.531250
vt 0.656250 0.593750
vt 0.687500 0.593750
vt 0.687500 0.625000
vt 0.656250 0.625000
vt 0.718750 0.531250
vt 0.750000 0.531250
vt 0.750000 0.562500
vt 0.718750 0.562500
vt 0.656250 0.718750
vt 0.687500 0.718750
vt 0.687500 0.750000
vt 0.656250 0.750000
vt 0.843750 0.656250
vt 0.718750 0.656250
vt 0.750000 0.656250
vt 0.750000 0.687500
vt 0.718750 0.687500
vt 0.781250 0.718750
vt 0.812500 0.718750
vt 0.812500 0.750000
vt 0.781250 0.750000
vt 0.781250 0.656250
vt 0.812500 0.656250
vt 0.812500 0.687500
vt 0.781250 0.687500
vt 0.281250 0.718750
vt 0.312500 0.718750
vt 0.312500 0.750000
vt 0.281250 0.750000
vt 0.281250 0.656250
vt 0.312500 0.656250
vt 0.312500 0.687500
vt 0.281250 0.687500
vt 0.343750 0.656250
vt 0.375000 0.656250
vt 0.375000 0.687500
vt 0.343750 0.687500
vt 0.531250 0.968750
vt 0.562500 0.968750
vt 0.562500 1.000000
vt 0.531250 1.000000
vt 0.531250 0.906250
vt 0.562500 0.906250
vt 0.562500 0.937500
vt 0.531250 0.937500
vt 0.593750 0.906250
vt 0.625000 0.906250
vt 0.625000 0.937500
vt 0.593750 0.937500
vt 0.531250 0.687500
vt 0.000000 0.000000
vt 0.531250 0.718750
vt 0.593750 0.687500
vt 0.593750 0.656250
vt 0.625000 0.656250
vt 0.625000 0.687500
vt 0.531250 0.468750
vt 0.562500 0.468750
vt 0.562500 0.500000
vt 0.531250 0.500000
vt 0.531250 0.406250
vt 0.562500 0.406250
vt 0.562500 0.437500
vt 0.531250 0.437500
vt 0.593750 0.406250
vt 0.625000 0.406250
vt 0.625000 0.437500
vt 0.593750 0.437500
vt 0.593750 0.156250
vt 0.625000 0.156250
vt 0.625000 0.187500
vt 0.593750 0.187500
vt 0.562500 0.156250
vt 0.531250 0.156250
vt 0.531250 0.187500
vt 0.531250 0.250000
vt 0.531250 0.750000
vt 0.562500 0.656250
vt 0.531250 0.656250
vt 0.875000 0.656250
vt 0.687500 0.656250
vt 0.687500 0.687500
vt 0.656250 0.656250
vt 0.687500 0.500000
vt 0.718750 0.500000
vt 0.750000 0.500000
vt 0.656250 0.500000
vt 0.843750 0.531250
vt 0.875000 0.531250
vt 0.812500 0.500000
vt 0.843750 0.500000
vt 0.781250 0.500000
vt 0.125000 0.656250
vt 0.125000 0.687500
vt 0.125000 0.625000
vt 0.125000 0.718750
vt 0.125000 0.750000
vt 0.187500 0.500000
vt 0.218750 0.500000
vt 0.250000 0.500000
vt 0.125000 0.500000
vt 0.156250 0.500000
vt 0.125000 0.531250
vt 0.125000 0.593750
vt 0.125000 0.562500
vt 0.343750 0.531250
vt 0.343750 0.562500
vt 0.312500 0.500000
vt 0.343750 0.500000
vt 0.375000 0.500000
vt 0.375000 0.531250
vt 0.281250 0.500000
vt 0.375000 0.906250
vt 0.375000 0.937500
vt 0.375000 0.875000
vt 0.375000 0.968750
vt 0.375000 1.000000
vt 0.375000 0.781250
vt 0.375000 0.812500
vt 0.375000 0.843750
vt 0.562500 0.750000
vt 0.468750 0.531250
vt 0.437500 0.531250
vt 0.500000 0.531250
vt 0.406250 0.531250
vt 0.375000 0.562500
vt 0.406250 0.562500
vt 0.437500 0.562500
vt 0.531250 0.562500
vt 0.500000 0.562500
vt 0.375000 0.406250
vt 0.375000 0.437500
vt 0.375000 0.375000
vt 0.375000 0.468750
vt 0.375000 0.281250
vt 0.375000 0.312500
vt 0.375000 0.250000
vt 0.375000 0.343750
vt 0.562500 0.250000
vt 0.593750 0.250000
vt 0.625000 0.250000
vt 0.375000 0.156250
vt 0.375000 0.187500
vt 0.375000 0.125000
vt 0.375000 0.218750
vt 0.437500 0.000000
vt 0.468750 0.000000
vt 0.468750 0.031250
vt 0.437500 0.031250
vt 0.500000 0.000000
vt 0.500000 0.031250
vt 0.375000 0.000000
vt 0.406250 0.000000
vt 0.406250 0.031250
vt 0.375000 0.031250
vt 0.375000 0.093750
vt 0.375000 0.062500
vt 0.406250 0.062500
vt 0.437500 0.062500
vt 0.593750 0.000000
vt 0.625000 0.000000
vt 0.531250 0.000000
vt 0.531250 0.031250
vt 0.500000 0.062500
vt 0.531250 0.062500
vt 0.468750 0.062500
vt 0.625000 0.562500
vt 0.468750 0.562500
vt 0.406250 0.562500
vt 0.437500 0.562500
vt 0.406250 0.718750
vt 0.437500 0.718750
vt 0.468750 0.562500
vt 0.500000 0.562500
vt 0.500000 0.062500
vt 0.531250 0.062500
vt 0.531250 0.562500
vt 0.531250 0.531250
vt 0.406250 0.218750
vt 0.437500 0.218750
vt 0.468750 0.531250
vt 0.437500 0.531250
vt 0.437500 0.687500
vt 0.406250 0.687500
vt 0.531250 0.687500
vt 0.500000 0.687500
vt 0.500000 0.531250
vt 0.468750 0.718750
vt 0.406250 0.062500
vt 0.437500 0.062500
vt 0.531250 0.031250
vt 0.468750 0.687500
vt 0.531250 0.718750
vt 0.468750 0.031250
vt 0.437500 0.031250
vt 0.500000 0.718750
vt 0.468750 0.062500
vt 0.500000 0.031250
vt 0.406250 0.531250
vt 0.437500 0.187500
vt 0.406250 0.187500
vt 0.531250 0.218750
vt 0.531250 0.187500
vt 0.468750 0.218750
vt 0.500000 0.187500
vt 0.468750 0.187500
vt 0.500000 0.218750
vt 0.406250 0.031250
vt 0.000000 0.000000
vt 0.000000 0.000000
vt 0.000000 0.000000
vt 0.000000 0.000000
vt 0.000000 0.000000
vt 0.000000 0.000000
vt 0.000000 0.000000
vt 0.000000 0.000000
vt 0.000000 0.000000
vt 0.000000 0.000000
vt 0.000000 0.000000
vt 0.000000 0.000000
vt 0.000000 0.000000
vt 0.000000 0.000000
vt 0.000000 0.000000
vt 0.000000 0.000000
vt 0.000000 0.000000
vt 0.000000 0.000000
vt 0.000000 0.000000
vt 0.000000 0.000000
vt 0.000000 0.000000
vt 0.000000 0.000000
vt 0.000000 0.000000
vt 0.000000 0.000000
vt 0.000000 0.000000
vt 0.000000 0.000000
vt 0.000000 0.000000
vt 0.000000 0.000000
vt 0.000000 0.000000
vt 0.000000 0.000000
vt 0.000000 0.000000
vt 0.000000 0.000000
vt 0.000000 0.000000
vt 0.000000 0.000000
vt 0.000000 0.000000
vt 0.000000 0.000000
vt 0.000000 0.000000
vt 0.000000 0.000000
vt 0.000000 0.000000
vt 0.000000 0.000000
vt 0.000000 0.000000
vt 0.000000 0.000000
vt 0.000000 0.000000
vt 0.000000 0.000000
vt 0.000000 0.000000
vt 0.000000 0.000000
vt 0.000000 0.000000
vt 0.000000 0.000000
vt 0.000000 0.000000
vt 0.000000 0.000000
vt 0.000000 0.000000
vt 0.000000 0.000000
vt 0.000000 0.000000
vt 0.000000 0.000000
vt 0.000000 0.000000
vt 0.000000 0.000000
vt 0.000000 0.000000
vt 0.000000 0.000000
vt 0.000000 0.000000
vt 0.000000 0.000000
vt 0.000000 0.000000
vt 0.000000 0.000000
vt 0.000000 0.000000
vt 0.000000 0.000000
vt 0.000000 0.000000
vt 0.000000 0.000000
vt 0.000000 0.000000
vt 0.000000 0.000000
vt 0.000000 0.000000
vt 0.000000 0.000000
vt 0.000000 0.000000
vt 0.000000 0.000000
vt 0.000000 0.000000
vt 0.000000 0.000000
vt 0.000000 0.000000
vt 0.000000 0.000000
vt 0.000000 0.000000
vt 0.000000 0.000000
vt 0.000000 0.000000
vt 0.000000 0.000000
vt 0.000000 0.000000
vt 0.000000 0.000000
vt 0.000000 0.000000
vt 0.000000 0.000000
vt 0.000000 0.000000
vt 0.000000 0.000000
vt 0.000000 0.000000
vt 0.000000 0.000000
vt 0.000000 0.000000
vt 0.000000 0.000000
vt 0.000000 0.000000
vt 0.000000 0.000000
vt 0.000000 0.000000
vt 0.000000 0.000000
vt 0.000000 0.000000
vt 0.000000 0.000000
vt 0.000000 0.000000
vt 0.000000 0.000000
vt 0.000000 0.000000
vt 0.000000 0.000000
vt 0.000000 0.000000
vt 0.000000 0.000000
vt 0.000000 0.000000
vt 0.000000 0.000000
vt 0.000000 0.000000
vt 0.000000 0.000000
vt 0.000000 0.000000
vt 0.000000 0.000000
vt 0.000000 0.000000
vt 0.000000 0.000000
vt 0.000000 0.000000
vt 0.000000 0.000000
vt 0.000000 0.000000
vt 0.000000 0.000000
vt 0.000000 0.000000
vt 0.000000 0.000000
vt 0.000000 0.000000
vt 0.000000 0.000000
vt 0.000000 0.000000
vt 0.000000 0.000000
vt 0.000000 0.000000
vt 0.000000 0.000000
vt 0.000000 0.000000
vt 0.000000 0.000000
vt 0.000000 0.000000
vt 0.000000 0.000000
vt 0.000000 0.000000
vt 0.000000 0.000000
vt 0.000000 0.000000
vt 0.000000 0.000000
vn -0.9579 0.2850 0.0341
vn 0.0163 0.7001 -0.7138
vn 0.9852 0.1473 -0.0880
vn 0.0002 -0.2994 0.9541
vn 0.0000 -0.9858 0.1680
vn -0.0022 0.8339 -0.5519
vn 0.0002 0.8407 -0.5415
vn 0.0941 0.9955 0.0093
vn -0.1536 0.9881 0.0000
vn 0.0000 -0.8107 0.5854
vn 0.0002 -1.0000 0.0000
vn -0.0021 -1.0000 0.0000
vn 0.0000 -0.0551 0.9985
vn 0.0000 -0.0550 0.9985
vn 0.0000 -0.2998 0.9540
vn 0.9941 0.1087 0.0014
vn 0.9899 0.1417 0.0000
vn 0.9647 0.2634 0.0000
vn -0.0035 0.1783 -0.9840
vn -0.0021 0.1679 -0.9858
vn -0.0106 0.6792 -0.7338
vn -0.9955 -0.0876 -0.0373
vn -0.9899 0.1417 0.0000
vn -0.9647 0.2634 0.0000
vn -0.9803 0.1973 0.0000
vn -0.9667 0.2523 -0.0420
vn -0.9951 0.0987 0.0000
vn -0.9868 -0.1154 -0.1138
vn -0.9958 0.0918 0.0046
vn -0.9911 0.1323 0.0133
vn -0.0054 0.4693 -0.8830
vn -0.0156 0.4773 -0.8786
vn -0.0303 0.6900 -0.7231
vn -0.0003 -0.1624 -0.9867
vn 0.0000 -0.1596 -0.9872
vn -0.0063 0.1707 -0.9853
vn -0.0079 -0.1613 -0.9869
vn 0.0005 -0.1611 -0.9869
vn 0.0059 0.1693 -0.9855
vn 0.9803 0.1973 0.0000
vn 0.9635 0.2631 -0.0489
vn 0.9579 0.2850 0.0341
vn 0.9951 0.0987 0.0000
vn 0.9969 0.0787 0.0008
vn 0.9959 0.0902 -0.0071
vn 0.9910 0.1322 -0.0219
vn -0.0001 -0.0550 0.9985
vn -0.0002 -0.2996 0.9541
vn -0.0077 -1.0000 0.0000
vn -0.0090 -0.9999 -0.0070
vn 0.0104 -0.9999 0.0000
vn 0.0033 -1.0000 -0.0042
vn 0.0006 -1.0000 -0.0075
vn -0.1368 -0.9547 0.2644
vn 0.0120 -0.9999 -0.0007
vn -0.2051 0.9783 -0.0295
vn -0.0907 0.9872 -0.1314
vn 0.0705 0.9912 -0.1124
vn 0.6472 0.7619 -0.0240
vn -0.6966 0.6747 -0.2440
vn 0.0355 0.9855 -0.1661
vn 0.0049 0.8362 -0.5484
vn -0.2739 0.9609 -0.0410
vn 0.0635 0.9772 0.2028
vn -0.0036 0.8393 -0.5437
vn -0.0946 0.9786 0.1828
vn -0.4798 0.8641 0.1522
vn -0.0023 -1.0000 -0.0026
vn 0.8281 0.5592 -0.0384
vn 0.9733 0.2262 -0.0388
vn 0.0061 0.4862 -0.8738
vn 0.0133 0.4726 -0.8812
vn 0.0239 0.6831 -0.7299
vn -0.9733 0.2297 0.0000
vn -0.9553 0.2955 0.0116
vn -0.9861 0.1664 0.0000
vn -0.9973 0.0646 -0.0339
vn 0.0198 0.6394 -0.7686
vn 0.0085 0.6339 -0.7734
vn 0.0106 0.6792 -0.7338
vn 0.0094 0.3323 -0.9431
vn 0.0036 0.3310 -0.9436
vn 0.0054 0.4693 -0.8830
vn 0.0013 0.3428 -0.9394
vn 0.0106 0.3340 -0.9425
vn 0.0156 0.4773 -0.8786
vn 0.9815 0.1882 -0.0347
vn 0.9733 0.2297 0.0000
vn 0.9706 0.2393 -0.0259
vn 0.9861 0.1664 0.0000
vn 0.9775 0.2101 -0.0190
vn 0.9732 0.2297 -0.0073
vn 0.0001 -0.0550 0.9985
vn -0.0120 -0.9999 -0.0007
vn -0.0104 -0.9999 0.0000
vn -0.0002 -1.0000 0.0000
vn -0.0001 -1.0000 0.0000
vn -0.0038 -1.0000 0.0017
vn 0.0303 0.9986 -0.0426
vn -0.6605 0.7509 0.0000
vn -0.0635 0.9772 0.2028
vn -0.1060 0.9944 0.0000
vn -0.1398 0.9902 0.0000
vn -0.0002 0.8407 -0.5415
vn -0.0119 0.9993 -0.0344
vn -0.0303 0.9982 -0.0513
vn 0.0946 0.9786 0.1828
vn 0.1398 0.9902 0.0000
vn 0.1060 0.9944 0.0000
vn 0.4798 0.8641 0.1522
vn 0.1536 0.9881 0.0000
vn 0.6605 0.7509 0.0000
vn 0.0022 0.8339 -0.5519
vn 0.0116 0.9980 -0.0623
vn -0.0050 0.9877 -0.1565
vn 0.0907 0.9872 -0.1314
vn 0.0380 0.9339 -0.3555
vn 0.0173 0.9322 -0.3616
vn 0.1416 0.9884 -0.0543
vn 0.0733 0.9572 -0.2800
vn 0.0557 0.9388 -0.3400
vn 0.2355 0.9703 -0.0559
vn 0.6966 0.6747 -0.2440
vn -0.1416 0.9884 -0.0543
vn -0.0557 0.9388 -0.3400
vn -0.0733 0.9572 -0.2800
vn -0.0355 0.9855 -0.1661
vn -0.0173 0.9322 -0.3616
vn -0.0380 0.9339 -0.3555
vn -0.0941 0.9955 0.0093
vn -0.0627 0.9407 -0.3333
vn -0.2325 0.9090 -0.3460
vn 0.0077 -1.0000 0.0000
vn 0.0023 -1.0000 -0.0026
vn 0.0021 -1.0000 0.0000
vn -0.0014 -1.0000 0.0057
vn 0.0090 -0.9999 -0.0070
vn 0.0076 -0.9997 -0.0235
vn 0.0005 -0.9998 -0.0183
vn -0.0159 -0.9998 -0.0153
vn 0.0104 -0.9994 -0.0318
vn 0.0023 -0.9999 -0.0098
vn 0.0025 -1.0000 -0.0047
vn -0.0033 -1.0000 -0.0042
vn -0.0104 -0.9994 -0.0318
vn 0.0159 -0.9998 -0.0153
vn -0.0006 -1.0000 -0.0075
vn -0.0005 -0.9998 -0.0183
vn -0.0076 -0.9997 -0.0235
vn -0.0002 -0.2994 0.9541
vn 0.9937 0.1114 -0.0142
vn 0.9928 0.1200 0.0000
vn 0.9975 0.0711 -0.0017
vn 0.9970 0.0779 0.0000
vn 0.9979 0.0643 -0.0011
vn 0.9925 -0.1018 -0.0672
vn 0.9955 -0.0876 -0.0373
vn 0.9741 -0.1318 -0.1839
vn 0.9868 -0.1154 -0.1138
vn 0.9974 0.0724 0.0017
vn 0.9958 0.0918 0.0046
vn 0.9993 0.0274 -0.0240
vn 0.9801 0.1973 -0.0214
vn 0.9997 0.0011 0.0239
vn 0.9973 0.0646 -0.0339
vn 0.9553 0.2955 0.0116
vn 0.9989 0.0375 -0.0279
vn 0.0029 0.0006 -1.0000
vn 0.0010 -0.0008 -1.0000
vn 0.0021 0.1679 -0.9858
vn -0.0012 -0.3061 -0.9520
vn 0.0000 -0.3072 -0.9516
vn 0.0003 -0.1624 -0.9867
vn -0.0047 -0.3132 -0.9497
vn -0.0021 -0.3044 -0.9525
vn -0.0027 0.0019 -1.0000
vn 0.0069 0.0060 -1.0000
vn 0.0035 0.1783 -0.9840
vn 0.0021 -0.3044 -0.9525
vn 0.0047 -0.3132 -0.9497
vn 0.0079 -0.1613 -0.9869
vn 0.0012 -0.3061 -0.9520
vn -0.0005 -0.1611 -0.9869
vn -0.0242 0.6481 -0.7612
vn -0.0113 0.6570 -0.7538
vn -0.0163 0.7001 -0.7138
vn -0.0106 0.3340 -0.9425
vn -0.0013 0.3428 -0.9394
vn -0.0061 0.4862 -0.8738
vn -0.0036 0.3310 -0.9436
vn -0.0094 0.3323 -0.9431
vn -0.0133 0.4726 -0.8812
vn -0.9936 0.1122 0.0086
vn -0.9928 0.1200 0.0000
vn -0.9974 0.0724 0.0017
vn -0.9970 0.0779 0.0000
vn -0.9741 -0.1318 -0.1839
vn -0.9955 0.0948 0.0020
vn -0.9941 0.1087 0.0014
vn -0.9979 0.0643 -0.0011
vn -0.9969 0.0787 0.0008
vn -0.9975 0.0711 -0.0017
vn -0.9959 0.0902 -0.0071
vn -0.9852 0.1473 -0.0880
vn -0.9775 0.2101 -0.0190
vn -0.9706 0.2393 -0.0259
vn -0.9937 0.1114 -0.0142
vn -0.9910 0.1322 -0.0219
vn -0.9925 -0.1018 -0.0672
vn -0.0085 0.6339 -0.7734
vn -0.0198 0.6394 -0.7686
vn -0.0239 0.6831 -0.7299
vn -0.0010 -0.0008 -1.0000
vn -0.0029 0.0006 -1.0000
vn -0.0059 0.1693 -0.9855
vn -0.0069 0.0060 -1.0000
vn 0.0027 0.0019 -1.0000
vn 0.0063 0.1707 -0.9853
vn 0.9889 0.1464 -0.0244
vn 0.9936 0.1122 0.0086
vn 0.9911 0.1323 0.0133
vn 0.9955 0.0948 0.0020
vn -0.0025 -1.0000 -0.0047
vn -0.0023 -0.9999 -0.0098
vn 0.0038 -1.0000 0.0017
vn 0.0001 -1.0000 0.0000
vn -0.6472 0.7619 -0.0240
vn -0.2355 0.9703 -0.0559
vn -0.0705 0.9912 -0.1124
vn 0.2051 0.9783 -0.0295
vn 0.2325 0.9090 -0.3460
vn 0.0627 0.9407 -0.3333
vn 0.0036 0.8393 -0.5437
vn 0.0303 0.9982 -0.0513
vn 0.0119 0.9993 -0.0344
vn -0.0049 0.8362 -0.5484
vn -0.0116 0.9980 -0.0623
vn 0.1368 -0.9547 0.2644
vn 0.0014 -1.0000 0.0057
vn 0.0002 -0.2996 0.9541
vn 0.9425 0.3341 0.0000
vn 0.9803 0.1973 -0.0047
vn 0.9667 0.2523 -0.0420
vn 0.0113 0.6570 -0.7538
vn 0.0242 0.6481 -0.7612
vn 0.0303 0.6900 -0.7231
vn -0.9635 0.2631 -0.0489
vn 0.0000 0.0000 -1.0000
vn -0.0060 -0.4638 -0.8859
vn 0.0163 -0.7672 0.6412
vn -0.0013 -0.1554 -0.9879
vn -0.0341 -0.9984 0.0456
vn 0.0015 -0.1350 0.9908
vn -0.0046 -0.3040 0.9527
vn 0.0000 0.0000 1.0000
vn -0.0163 -0.7672 0.6412
vn -0.0112 -0.5487 0.8359
vn -0.0001 -0.2429 -0.9701
vn 0.0160 -0.9969 0.0766
vn -0.0215 -0.6747 0.7378
vn -0.0052 -0.3897 0.9209
vn -0.0160 -0.9969 0.0766
vn 0.0001 -0.2429 -0.9701
vn -0.0005 -0.3683 -0.9297
vn 0.0052 -0.3897 0.9209
vn -0.0026 -0.7617 -0.6479
vn 0.0005 -0.3683 -0.9297
vn 0.0022 -0.2580 0.9661
vn -0.0022 -0.2580 0.9661
vn 0.0026 -0.7617 -0.6479
vn -0.0015 -0.1350 0.9908
vn 0.0341 -0.9984 0.0456
vn 0.0046 -0.3040 0.9527
vn 0.0060 -0.4638 -0.8859
vn 0.0215 -0.6747 0.7378
vn 0.0112 -0.5487 0.8359
vn 0.0013 -0.1554 -0.9879
vn 0.0145 -0.6835 -0.7298
vn -0.0145 -0.6835 -0.7298
vn 0.9888 0.1495 -0.0028
vn 0.9990 0.0448 -0.0024
vn 0.9985 0.0541 -0.0033
vn 0.9982 0.0605 -0.0041
vn 0.9986 0.0522 -0.0021
vn -0.9888 0.1495 -0.0028
vn -0.9990 0.0448 -0.0024
vn -0.9985 0.0541 -0.0033
vn -0.9982 0.0605 -0.0041
vn -0.9986 0.0522 -0.0021
vn 0.2548 -0.8423 0.4750
vn 0.0010 -0.1058 0.9944
vn -0.9895 0.1363 -0.0474
vn -0.9985 0.0326 -0.0440
vn -0.9988 0.0281 -0.0398
vn -0.9992 0.0197 -0.0347
vn -0.9996 0.0023 -0.0290
vn -0.2548 -0.8423 0.4750
vn -0.0010 -0.1058 0.9944
vn 0.9895 0.1363 -0.0474
vn 0.9985 0.0326 -0.0440
vn 0.9988 0.0281 -0.0398
vn 0.9992 0.0197 -0.0347
vn 0.9996 0.0023 -0.0290
vn -0.0303 0.9986 -0.0426
vn 0.0050 0.9877 -0.1565
vn 0.2739 0.9609 -0.0410
vn 0.9874 0.1368 -0.0792
vn 0.9824 0.1711 -0.0745
vn -0.9824 0.1711 -0.0745
vn -0.9874 0.1368 -0.0792
vn -0.9815 0.1882 -0.0347
vn -0.9733 0.2262 -0.0388
vn -0.8281 0.5592 -0.0384
vn -0.9425 0.3341 0.0000
vn -0.9732 0.2297 -0.0073
vn -0.9803 0.1973 -0.0047
vn 0.9950 -0.0929 0.0355
vn 0.9895 -0.1371 0.0450
vn -0.9801 0.1973 -0.0214
vn -0.9989 0.0375 -0.0279
vn -0.9889 0.1464 -0.0244
vn -0.9993 0.0274 -0.0240
vn -0.9997 0.0011 0.0239
vn -0.9950 -0.0930 0.0355
vn -0.9895 -0.1371 0.0450
vn 0.0000 -0.3827 -0.9239
vn 0.0000 -0.9239 0.3827
vn 0.0000 0.3827 0.9239
vn 0.0000 0.9239 -0.3827
vn 0.0000 -0.9239 -0.3827
vn 0.0000 -0.3827 0.9239
vn 0.0000 0.9239 0.3827
vn 0.0000 0.3827 -0.9239
vn -1.0000 0.0000 0.0000
vn 1.0000 0.0000 0.0000
vn 0.0000 -0.3829 -0.9238
vn 0.0000 -0.9240 0.3825
vn 0.0000 0.3829 0.9238
vn 0.0000 0.9240 -0.3825
vn 0.0000 -0.9240 -0.3825
vn 0.0000 -0.3829 0.9238
vn 0.0000 0.9240 0.3825
vn 0.0000 0.3829 -0.9238
usemtl None
s off
f 4/1/1 281/2/1 97/3/1
f 372/4/2 100/5/2 8/6/2 161/7/2
f 371/8/3 103/9/3 6/10/3 164/11/3
f 370/12/4 106/13/4 2/14/4 96/15/4
f 369/16/5 162/17/5 5/18/5 105/19/5
f 368/20/6 157/21/6 2/22/6 106/23/6
f 367/24/7 119/25/7 20/26/7 118/27/7
f 366/28/8 120/29/8 21/30/8 169/31/8
f 365/32/9 145/33/9 11/34/9 170/35/9
f 364/36/10 123/37/10 19/38/10 117/39/10
f 363/40/11 124/41/11 22/42/11 173/43/11
f 362/44/12 150/45/12 16/46/12 174/47/12
f 361/48/13 127/49/13 10/50/13 108/51/13
f 360/52/14 128/53/14 23/54/14 177/55/14
f 359/56/15 118/57/15 20/58/15 178/59/15
f 358/60/16 131/61/16 18/62/16 152/63/16
f 357/64/17 132/65/17 24/66/17 181/67/17
f 356/68/18 115/69/18 17/70/18 182/71/18
f 355/72/19 135/73/19 15/74/19 149/75/19
f 354/76/20 136/77/20 25/78/20 185/79/20
f 353/80/21 112/81/21 14/82/21 186/83/21
f 352/84/22 139/85/22 12/86/22 146/87/22
f 351/88/23 140/89/23 26/90/23 189/91/23
f 350/92/24 109/93/24 11/94/24 190/95/24
f 349/96/25 191/97/25 74/98/25 142/99/25
f 347/100/26 157/101/26 41/102/26 193/103/26
f 346/104/27 194/105/27 73/106/27 141/107/27
f 343/108/28 198/109/28 30/110/28 98/111/28
f 342/112/29 199/113/29 76/114/29 200/115/29
f 341/116/30 187/117/30 71/118/30 201/119/30
f 340/120/31 202/121/31 70/122/31 138/123/31
f 339/124/32 203/125/32 77/126/32 204/127/32
f 338/128/33 160/129/33 44/130/33 205/131/33
f 337/132/34 206/133/34 69/134/34 137/135/34
f 336/136/35 207/137/35 78/138/35 208/139/35
f 335/140/36 184/141/36 68/142/36 209/143/36
f 334/144/37 210/145/37 33/146/37 101/147/37
f 333/148/38 211/149/38 79/150/38 212/151/38
f 332/152/39 183/153/39 67/154/39 213/155/39
f 331/156/40 214/157/40 66/158/40 134/159/40
f 216/160/41 330/161/41 47/162/41
f 8/6/42 163/163/42 330/161/42
f 329/164/43 217/165/43 65/166/43 133/167/43
f 326/168/44 221/169/44 36/170/44 104/171/44
f 325/172/45 222/173/45 81/174/45 223/175/45
f 324/176/46 179/177/46 63/178/46 224/179/46
f 323/180/14 225/181/14 62/182/14 130/183/14
f 322/184/47 226/185/47 82/186/47 227/187/47
f 321/188/48 166/189/48 50/190/48 228/191/48
f 320/192/14 229/193/14 61/194/14 129/195/14
f 319/196/14 230/197/14 83/198/14 231/199/14
f 318/200/14 176/201/14 60/202/14 232/203/14
f 317/204/14 233/205/14 40/206/14 156/207/14
f 316/208/14 234/209/14 84/210/14 235/211/14
f 315/212/14 175/213/14 59/214/14 236/215/14
f 314/216/49 237/217/49 58/218/49 126/219/49
f 313/220/50 238/221/50 85/222/50 239/223/50
f 311/224/51 241/225/51 57/226/51 125/227/51
f 310/228/52 242/229/52 86/230/52 243/231/52
f 309/232/53 172/233/53 56/234/53 244/235/53
f 308/236/54 245/237/54 49/238/54 165/239/54
f 307/240/55 246/241/55 87/242/55 247/243/55
f 306/244/11 171/245/11 55/246/11 248/247/11
f 305/248/56 249/249/56 54/250/56 122/251/56
f 304/252/57 250/253/57 88/254/57 251/255/57
f 89/256/58 301/257/58 253/258/58
f 302/259/59 252/260/59 53/261/59 121/262/59
f 249/249/60 88/254/60 365/32/60
f 300/263/61 168/264/61 52/265/61 254/266/61
f 299/267/62 255/268/62 50/269/62 166/270/62
f 294/271/63 41/102/63 368/20/63
f 297/272/64 167/273/64 51/274/64 257/275/64
f 296/276/65 258/277/65 38/278/65 154/279/65
f 295/280/66 259/281/66 91/282/66 260/283/66
f 259/281/67 294/271/67 91/282/67
f 293/284/10 261/285/10 37/286/10 153/287/10
f 292/288/49 262/289/49 92/290/49 263/291/49
f 291/292/68 114/293/68 46/294/68 264/295/68
f 290/296/13 265/297/13 28/298/13 144/299/13
f 289/300/14 266/301/14 93/302/14 267/303/14
f 288/304/15 154/305/15 38/306/15 268/307/15
f 270/308/69 271/309/69 287/310/69
f 371/8/70 287/310/70 271/311/70
f 285/312/18 151/313/18 35/314/18 271/311/18
f 284/315/71 272/316/71 45/317/71 113/318/71
f 283/319/72 273/320/72 94/321/72 274/322/72
f 282/323/73 148/324/73 32/325/73 275/326/73
f 279/327/24 145/328/24 29/329/24 278/330/24
f 74/98/74 190/95/74 279/327/74 276/331/74
f 190/95/24 11/94/24 145/328/24 279/327/24
f 187/117/75 280/332/75 277/333/75 71/118/75
f 26/90/76 142/99/76 280/332/76 187/117/76
f 142/99/25 74/98/25 276/331/25 280/332/25
f 139/85/77 281/2/77 110/334/77 12/86/77
f 273/320/78 282/323/78 275/326/78 94/321/78
f 70/122/79 186/83/79 282/323/79 273/320/79
f 186/83/80 14/82/80 148/324/80 282/323/80
f 183/153/81 283/319/81 274/322/81 67/154/81
f 25/78/82 138/123/82 283/319/82 183/153/82
f 138/123/83 70/122/83 273/320/83 283/319/83
f 135/73/84 284/315/84 113/318/84 15/74/84
f 67/154/85 274/322/85 284/315/85 135/73/85
f 274/322/86 94/321/86 272/316/86 284/315/86
f 371/8/87 116/335/87 287/310/87
f 66/158/88 182/71/88 285/312/88 269/336/88
f 182/71/18 17/70/18 151/313/18 285/312/18
f 179/177/89 286/337/89 270/308/89 63/178/89
f 24/66/90 134/159/90 286/337/90 179/177/90
f 134/159/40 66/158/40 269/336/40 286/337/40
f 131/61/91 287/310/91 116/335/91 18/62/91
f 270/308/92 269/336/92 285/312/92
f 266/301/14 288/304/14 268/307/14 93/302/14
f 62/182/14 178/59/14 288/304/14 266/301/14
f 178/59/15 20/58/15 154/305/15 288/304/15
f 175/213/14 289/300/14 267/303/14 59/214/14
f 23/54/14 130/183/14 289/300/14 175/213/14
f 130/183/14 62/182/14 266/301/14 289/300/14
f 127/49/13 290/296/13 144/299/13 10/50/13
f 59/214/13 267/303/13 290/296/13 127/49/13
f 267/303/93 93/302/93 265/297/93 290/296/93
f 262/289/94 291/292/94 264/295/94 92/290/94
f 58/218/95 174/47/95 291/292/95 262/289/95
f 174/47/12 16/46/12 114/293/12 291/292/12
f 171/245/96 292/288/96 263/291/96 55/246/96
f 22/42/96 126/219/96 292/288/96 171/245/96
f 126/219/49 58/218/49 262/289/49 292/288/49
f 123/37/10 293/284/10 153/287/10 19/38/10
f 55/246/97 263/291/97 293/284/97 123/37/97
f 263/291/98 92/290/98 261/285/98 293/284/98
f 368/20/99 91/282/99 294/271/99
f 54/250/100 170/35/100 294/271/100 259/281/100
f 170/35/9 11/34/9 109/338/9 294/271/9
f 167/273/101 295/280/101 260/283/101 51/274/101
f 21/30/102 122/251/102 295/280/102 167/273/102
f 122/251/103 54/250/103 259/281/103 295/280/103
f 119/25/104 296/276/104 154/279/104 20/26/104
f 51/274/105 260/283/105 296/276/105 119/25/105
f 260/283/106 91/282/106 258/277/106 296/276/106
f 256/339/107 297/272/107 257/275/107 90/340/107
f 53/261/108 169/31/108 297/272/108 256/339/108
f 169/31/109 21/30/109 167/273/109 297/272/109
f 90/340/110 298/341/110 256/339/110
f 17/70/111 121/262/111 298/341/111 151/313/111
f 121/262/112 53/261/112 256/339/112 298/341/112
f 103/9/113 299/267/113 166/270/113 6/10/113
f 255/268/114 299/267/114 90/340/114
f 41/102/115 157/21/115 368/20/115
f 253/258/116 300/263/116 254/266/116 89/256/116
f 32/342/117 148/343/117 300/263/117 253/258/117
f 148/343/118 14/344/118 168/264/118 300/263/118
f 115/69/119 163/163/119 301/257/119 302/259/119
f 8/6/120 100/345/120 301/257/120 163/163/120
f 100/345/121 32/342/121 253/258/121 301/257/121
f 115/69/111 302/259/111 121/262/111 17/70/111
f 302/259/122 301/257/122 89/256/122
f 252/260/123 302/259/123 89/256/123
f 365/32/124 303/346/124 97/347/124 145/33/124
f 44/348/125 160/349/125 303/346/125 250/253/125
f 160/349/126 4/1/126 97/347/126 303/346/126
f 168/264/127 304/252/127 251/255/127 52/265/127
f 14/344/128 112/350/128 304/252/128 168/264/128
f 112/350/129 44/348/129 250/253/129 304/252/129
f 120/29/130 305/248/130 122/251/130 21/30/130
f 52/265/131 251/255/131 305/248/131 120/29/131
f 251/255/132 88/254/132 249/249/132 305/248/132
f 246/241/133 306/244/133 248/247/133 87/242/133
f 57/226/133 173/43/133 306/244/133 246/241/133
f 173/43/11 22/42/11 171/245/11 306/244/11
f 143/351/134 307/240/134 247/243/134 27/352/134
f 9/353/135 125/227/135 307/240/135 143/351/135
f 125/227/51 57/226/51 246/241/51 307/240/51
f 95/354/5 308/236/5 165/239/5 1/355/5
f 247/243/136 87/242/136 245/237/136 308/236/136
f 242/229/137 309/232/137 244/235/137 86/230/137
f 31/356/138 147/357/138 309/232/138 242/229/138
f 147/357/139 13/358/139 172/233/139 309/232/139
f 3/359/140 99/360/140 310/228/140 155/361/140
f 99/360/141 31/356/141 242/229/141 310/228/141
f 107/362/135 311/224/135 125/227/135 9/353/135
f 39/363/142 243/231/142 311/224/142 107/362/142
f 243/231/143 86/230/143 241/225/143 311/224/143
f 238/221/144 312/364/144 240/365/144 85/222/144
f 43/366/145 159/367/145 312/364/145 238/221/145
f 159/367/146 7/368/146 102/369/146 312/364/146
f 172/233/147 313/220/147 239/223/147 56/234/147
f 13/358/148 111/370/148 313/220/148 172/233/148
f 111/370/149 43/366/149 238/221/149 313/220/149
f 124/41/96 314/216/96 126/219/96 22/42/96
f 56/234/96 239/223/96 314/216/96 124/41/96
f 239/223/49 85/222/49 237/217/49 314/216/49
f 234/209/14 315/212/14 236/215/14 84/210/14
f 61/194/14 177/55/14 315/212/14 234/209/14
f 177/55/14 23/54/14 175/213/14 315/212/14
f 117/371/14 316/208/14 235/211/14 49/372/14
f 19/373/14 129/195/14 316/208/14 117/371/14
f 129/195/14 61/194/14 234/209/14 316/208/14
f 165/374/14 317/204/14 156/207/14 1/375/14
f 49/372/14 235/211/14 317/204/14 165/374/14
f 235/211/14 84/210/14 233/205/14 317/204/14
f 230/197/14 318/200/14 232/203/14 83/198/14
f 36/170/14 152/63/14 318/200/14 230/197/14
f 152/63/13 18/62/13 176/201/13 318/200/13
f 105/376/14 319/196/14 231/199/14 37/377/14
f 5/18/14 104/171/14 319/196/14 105/376/14
f 104/171/14 36/170/14 230/197/14 319/196/14
f 153/378/14 320/192/14 129/195/14 19/373/14
f 37/377/14 231/199/14 320/192/14 153/378/14
f 231/199/14 83/198/14 229/193/14 320/192/14
f 226/185/47 321/188/47 228/191/47 82/186/47
f 48/379/14 164/11/14 321/188/14 226/185/14
f 164/11/150 6/10/150 166/189/150 321/188/150
f 176/201/13 322/184/13 227/187/13 60/202/13
f 18/62/13 116/335/13 322/184/13 176/201/13
f 116/335/13 48/379/13 226/185/13 322/184/13
f 128/53/14 323/180/14 130/183/14 23/54/14
f 60/202/14 227/187/14 323/180/14 128/53/14
f 227/187/14 82/186/14 225/181/14 323/180/14
f 222/173/151 324/176/151 224/179/151 81/174/151
f 65/166/152 181/67/152 324/176/152 222/173/152
f 181/67/17 24/66/17 179/177/17 324/176/17
f 114/293/153 325/172/153 223/175/153 46/294/153
f 16/46/154 133/167/154 325/172/154 114/293/154
f 133/167/43 65/166/43 222/173/43 325/172/43
f 162/17/155 326/168/155 104/171/155 5/18/155
f 33/146/156 149/75/156 327/380/156 218/381/156
f 149/75/157 15/74/157 180/382/157 327/380/157
f 7/368/158 101/147/158 328/383/158 102/369/158
f 101/147/159 33/146/159 218/381/159 328/383/159
f 150/45/154 329/164/154 133/167/154 16/46/154
f 34/384/160 219/385/160 329/164/160 150/45/160
f 219/385/161 80/386/161 217/165/161 329/164/161
f 215/387/162 330/161/162 216/160/162
f 214/157/163 331/156/163 215/387/163
f 161/7/164 8/6/164 330/161/164
f 15/74/165 113/318/165 330/161/165 180/382/165
f 214/157/88 216/160/88 356/68/88
f 132/65/90 331/156/90 134/159/90 24/66/90
f 64/388/166 215/387/166 331/156/166 132/65/166
f 215/387/167 216/160/167 214/157/167
f 211/149/168 332/152/168 213/155/168 79/150/168
f 69/134/169 185/79/169 332/152/169 211/149/169
f 185/79/170 25/78/170 183/153/170 332/152/170
f 111/389/171 333/148/171 212/151/171 43/390/171
f 13/391/172 137/135/172 333/148/172 111/389/172
f 137/135/173 69/134/173 211/149/173 333/148/173
f 159/392/174 334/144/174 101/147/174 7/368/174
f 43/390/175 212/151/175 334/144/175 159/392/175
f 212/151/35 79/150/35 210/145/35 334/144/35
f 207/137/176 335/140/176 209/143/176 78/138/176
f 30/110/177 146/87/177 335/140/177 207/137/177
f 146/87/178 12/86/178 184/141/178 335/140/178
f 99/393/179 336/136/179 208/139/179 31/394/179
f 3/395/180 98/111/180 336/136/180 99/393/180
f 98/111/181 30/110/181 207/137/181 336/136/181
f 147/396/172 337/132/172 137/135/172 13/391/172
f 31/394/182 208/139/182 337/132/182 147/396/182
f 208/139/183 78/138/183 206/133/183 337/132/183
f 203/125/184 338/128/184 205/131/184 77/126/184
f 42/397/185 158/398/185 338/128/185 203/125/185
f 158/398/186 4/399/186 160/129/186 338/128/186
f 184/141/187 339/124/187 204/127/187 68/142/187
f 12/86/188 110/334/188 339/124/188 184/141/188
f 110/334/189 42/397/189 203/125/189 339/124/189
f 136/77/190 340/120/190 138/123/190 25/78/190
f 68/142/191 204/127/191 340/120/191 136/77/191
f 204/127/192 77/126/192 202/121/192 340/120/192
f 199/113/193 341/116/193 201/119/193 76/114/193
f 73/106/194 189/91/194 341/116/194 199/113/194
f 189/91/23 26/90/23 187/117/23 341/116/23
f 107/400/195 342/112/195 200/115/195 39/401/195
f 9/402/196 141/107/196 342/112/196 107/400/196
f 141/107/27 73/106/27 199/113/27 342/112/27
f 155/403/197 343/108/197 98/111/197 3/395/197
f 40/404/198 108/405/198 344/406/198 195/407/198
f 108/405/199 10/408/199 188/409/199 344/406/199
f 1/410/200 156/411/200 345/412/200 95/413/200
f 156/411/201 40/404/201 195/407/201 345/412/201
f 143/414/196 346/104/196 141/107/196 9/402/196
f 27/415/202 196/416/202 346/104/202 143/414/202
f 196/416/203 75/417/203 194/105/203 346/104/203
f 96/418/204 2/419/204 157/101/204 347/100/204
f 10/408/205 144/420/205 348/421/205 188/409/205
f 140/89/76 349/96/76 142/99/76 26/90/76
f 72/422/206 192/423/206 349/96/206 140/89/206
f 191/97/74 350/92/74 190/95/74 74/98/74
f 193/103/24 41/102/24 109/93/24 350/92/24
f 194/105/194 351/88/194 189/91/194 73/106/194
f 75/417/207 197/424/207 351/88/207 194/105/207
f 197/424/208 72/422/208 140/89/208 351/88/208
f 198/109/209 352/84/209 146/87/209 30/110/209
f 202/121/210 353/80/210 186/83/210 70/122/210
f 77/126/211 205/131/211 353/80/211 202/121/211
f 205/131/212 44/130/212 112/81/212 353/80/212
f 206/133/213 354/76/213 185/79/213 69/134/213
f 78/138/214 209/143/214 354/76/214 206/133/214
f 209/143/215 68/142/215 136/77/215 354/76/215
f 210/145/216 355/72/216 149/75/216 33/146/216
f 79/150/217 213/155/217 355/72/217 210/145/217
f 213/155/218 67/154/218 135/73/218 355/72/218
f 214/157/88 356/68/88 182/71/88 66/158/88
f 47/162/219 330/161/219 163/163/219
f 216/160/18 47/425/18 115/69/18 356/68/18
f 217/165/152 357/64/152 181/67/152 65/166/152
f 80/386/220 220/426/220 357/64/220 217/165/220
f 220/426/221 64/388/221 132/65/221 357/64/221
f 221/169/222 358/60/222 152/63/222 36/170/222
f 225/181/14 359/56/14 178/59/14 62/182/14
f 82/186/14 228/191/14 359/56/14 225/181/14
f 228/191/15 50/190/15 118/57/15 359/56/15
f 229/193/14 360/52/14 177/55/14 61/194/14
f 83/198/14 232/203/14 360/52/14 229/193/14
f 232/203/14 60/202/14 128/53/14 360/52/14
f 233/205/14 361/48/14 108/51/14 40/206/14
f 84/210/14 236/215/14 361/48/14 233/205/14
f 236/215/14 59/214/14 127/49/14 361/48/14
f 237/217/95 362/44/95 174/47/95 58/218/95
f 85/222/223 240/365/223 362/44/223 237/217/223
f 240/365/224 34/384/224 150/45/224 362/44/224
f 241/225/133 363/40/133 173/43/133 57/226/133
f 86/230/133 244/235/133 363/40/133 241/225/133
f 244/235/11 56/234/11 124/41/11 363/40/11
f 245/237/10 364/36/10 117/39/10 49/238/10
f 87/242/225 248/247/225 364/36/225 245/237/225
f 248/247/226 55/246/226 123/37/226 364/36/226
f 249/249/227 365/32/227 170/35/227 54/250/227
f 303/346/228 365/32/228 88/254/228
f 250/253/229 303/346/229 88/254/229
f 252/260/230 366/28/230 169/31/230 53/261/230
f 89/256/231 254/266/231 366/28/231 252/260/231
f 254/266/232 52/265/232 120/29/232 366/28/232
f 255/268/233 367/24/233 118/27/233 50/269/233
f 90/340/234 257/275/234 367/24/234 255/268/234
f 257/275/235 51/274/235 119/25/235 367/24/235
f 258/277/236 368/20/236 106/23/236 38/278/236
f 368/20/237 258/277/237 91/282/237
f 109/338/9 41/102/9 294/271/9
f 261/285/238 369/16/238 105/19/238 37/286/238
f 92/290/239 264/295/239 369/16/239 261/285/239
f 265/297/14 370/12/14 96/15/14 28/298/14
f 93/302/93 268/307/93 370/12/93 265/297/93
f 268/307/240 38/306/240 106/13/240 370/12/240
f 270/308/241 285/312/241 271/309/241
f 270/308/242 286/337/242 269/336/242
f 271/311/243 35/314/243 103/9/243 371/8/243
f 272/316/244 372/4/244 161/7/244 45/317/244
f 94/321/245 275/326/245 372/4/245 272/316/245
f 275/326/246 32/325/246 100/5/246 372/4/246
f 278/330/247 29/329/247 281/2/247
f 80/386/248 219/385/248 394/427/248 379/428/248
f 221/169/248 326/168/248 403/429/248 396/430/248
f 64/388/249 220/426/249 395/431/249 374/432/249
f 192/423/250 72/422/250 376/433/250 385/434/250
f 220/426/251 80/386/251 379/428/251 395/431/251
f 330/161/252 215/387/252 392/435/252 406/436/252
f 198/109/253 343/108/253 407/437/253 389/438/253
f 218/381/254 327/380/254 404/439/254 393/440/254
f 223/175/255 81/174/255 380/441/255 397/442/255
f 63/178/256 270/308/256 399/443/256 373/444/256
f 327/380/257 180/382/257 383/445/257 404/439/257
f 358/60/258 221/169/258 396/430/258 412/446/258
f 75/417/255 196/416/255 387/447/255 377/448/255
f 348/421/259 192/423/259 385/434/259 410/449/259
f 180/382/260 330/161/260 406/436/260 383/445/260
f 224/179/261 63/178/261 373/444/261 398/450/261
f 270/308/262 287/310/262 402/451/262 399/443/262
f 195/407/263 344/406/263 408/452/263 386/453/263
f 131/61/264 358/60/264 412/446/264 381/454/264
f 72/422/265 197/424/265 388/455/265 376/433/265
f 287/310/266 131/61/266 381/454/266 402/451/266
f 344/406/267 188/409/267 384/456/267 408/452/267
f 197/424/268 75/417/268 377/448/268 388/455/268
f 81/174/269 224/179/269 398/450/269 380/441/269
f 188/409/270 348/421/270 410/449/270 384/456/270
f 328/383/271 218/381/271 393/440/271 405/457/271
f 200/115/248 76/114/248 378/458/248 390/459/248
f 277/333/272 281/2/272 401/460/272 400/461/272
f 352/84/273 198/109/273 389/438/273 411/462/273
f 201/119/274 71/118/274 375/463/274 391/464/274
f 281/2/275 139/85/275 382/465/275 401/460/275
f 345/412/248 195/407/248 386/453/248 409/466/248
f 139/85/276 352/84/276 411/462/276 382/465/276
f 76/114/277 201/119/277 391/464/277 378/458/277
f 71/118/278 277/333/278 400/461/278 375/463/278
f 215/387/279 64/388/279 374/432/279 392/435/279
f 196/416/255 27/352/255 247/243/255 387/447/255
f 95/413/248 345/412/248 409/466/248 308/236/248
f 326/168/248 162/17/248 369/16/248 403/429/248
f 223/175/255 397/442/255 264/295/255 46/294/255
f 264/295/280 397/442/280 403/429/280 369/16/280
f 397/442/281 380/441/281 396/430/281 403/429/281
f 380/441/282 398/450/282 412/446/282 396/430/282
f 398/450/283 373/444/283 381/454/283 412/446/283
f 373/444/284 399/443/284 402/451/284 381/454/284
f 308/236/285 409/466/285 387/447/285 247/243/285
f 387/447/286 409/466/286 386/453/286 377/448/286
f 377/448/287 386/453/287 408/452/287 388/455/287
f 388/455/288 408/452/288 384/456/288 376/433/288
f 376/433/289 384/456/289 410/449/289 385/434/289
f 407/467/290 155/361/290 310/228/290
f 155/361/291 407/467/291 343/108/291
f 200/115/248 390/459/248 243/231/248 39/363/248
f 243/231/292 390/459/292 407/467/292 310/228/292
f 390/459/293 378/458/293 389/438/293 407/467/293
f 378/458/294 391/464/294 411/462/294 389/438/294
f 391/464/295 375/463/295 382/465/295 411/462/295
f 375/463/296 400/461/296 401/460/296 382/465/296
f 219/385/248 34/384/248 240/365/248 394/427/248
f 102/369/297 405/468/297 312/364/297
f 328/383/298 405/457/298 102/369/298
f 312/364/299 405/468/299 394/427/299 240/365/299
f 394/427/300 405/468/300 393/440/300 379/428/300
f 379/428/301 393/440/301 404/439/301 395/431/301
f 395/431/302 404/439/302 383/445/302 374/432/302
f 374/432/303 383/445/303 406/436/303 392/435/303
f 299/267/304 298/341/304 90/340/304
f 103/9/305 35/314/305 299/267/305
f 299/267/306 35/314/306 298/341/306
f 151/313/111 298/341/111 35/314/111
f 48/379/307 116/335/307 371/8/307
f 164/11/308 48/379/308 371/8/308
f 96/418/309 347/100/309 28/298/309
f 28/298/310 347/100/310 144/299/310
f 348/421/311 144/299/311 347/100/311
f 347/100/312 193/103/312 348/421/312
f 348/421/313 193/103/313 192/423/313
f 193/103/314 350/92/314 192/423/314
f 191/97/315 192/423/315 350/92/315
f 192/423/316 191/97/316 349/96/316
f 161/7/317 330/161/317 45/317/317
f 330/161/318 113/318/318 45/317/318
f 280/332/319 276/331/319 277/333/319
f 278/330/74 276/331/74 279/327/74
f 276/331/320 278/330/320 277/333/320
f 97/3/321 281/2/321 29/329/321
f 281/2/322 277/333/322 278/330/322
f 158/398/323 281/2/323 4/1/323
f 42/397/324 281/2/324 158/398/324
f 110/334/325 281/2/325 42/397/325
f 413/469/326 420/470/326 428/471/326 421/472/326
f 419/473/327 418/474/327 426/475/327 427/476/327
f 417/477/328 416/478/328 424/479/328 425/480/328
f 415/481/329 414/482/329 422/483/329 423/484/329
f 420/470/330 419/473/330 427/476/330 428/471/330
f 418/474/331 417/477/331 425/480/331 426/475/331
f 416/478/332 415/481/332 423/484/332 424/479/332
f 414/482/333 413/469/333 421/472/333 422/483/333
f 422/483/334 421/472/334 428/471/334 427/476/334 426/475/334 425/480/334 424/479/334 423/484/334
f 420/470/335 413/469/335 429/485/335 436/486/335
f 418/474/335 419/473/335 435/487/335 434/488/335
f 416/478/335 417/477/335 433/489/335 432/490/335
f 414/482/335 415/481/335 431/491/335 430/492/335
f 419/473/335 420/470/335 436/486/335 435/487/335
f 417/477/335 418/474/335 434/488/335 433/489/335
f 415/481/335 416/478/335 432/490/335 431/491/335
f 413/469/335 414/482/335 430/492/335 429/485/335
f 434/488/329 435/487/329 443/493/329 442/494/329
f 432/490/326 433/489/326 441/495/326 440/496/326
f 430/492/327 431/491/327 439/497/327 438/498/327
f 435/487/332 436/486/332 444/499/332 443/493/332
f 433/489/333 434/488/333 442/494/333 441/495/333
f 431/491/330 432/490/330 440/496/330 439/497/330
f 429/485/331 430/492/331 438/498/331 437/500/331
f 436/486/328 429/485/328 437/500/328 444/499/328
f 438/498/335 439/497/335 440/496/335 441/495/335 442/494/335 443/493/335 444/499/335 437/500/335
f 445/501/326 452/502/326 460/503/326 453/504/326
f 451/505/327 450/506/327 458/507/327 459/508/327
f 449/509/328 448/510/328 456/511/328 457/512/328
f 447/513/329 446/514/329 454/515/329 455/516/329
f 452/502/330 451/505/330 459/508/330 460/503/330
f 450/506/331 449/509/331 457/512/331 458/507/331
f 448/510/332 447/513/332 455/516/332 456/511/332
f 446/514/333 445/501/333 453/504/333 454/515/333
f 454/515/334 453/504/334 460/503/334 459/508/334 458/507/334 457/512/334 456/511/334 455/516/334
f 452/502/335 445/501/335 461/517/335 468/518/335
f 450/506/335 451/505/335 467/519/335 466/520/335
f 448/510/335 449/509/335 465/521/335 464/522/335
f 446/514/335 447/513/335 463/523/335 462/524/335
f 451/505/335 452/502/335 468/518/335 467/519/335
f 449/509/335 450/506/335 466/520/335 465/521/335
f 447/513/335 448/510/335 464/522/335 463/523/335
f 445/501/335 446/514/335 462/524/335 461/517/335
f 466/520/329 467/519/329 475/525/329 474/526/329
f 464/522/326 465/521/326 473/527/326 472/528/326
f 462/524/327 463/523/327 471/529/327 470/530/327
f 467/519/332 468/518/332 476/531/332 475/525/332
f 465/521/333 466/520/333 474/526/333 473/527/333
f 463/523/330 464/522/330 472/528/330 471/529/330
f 461/517/331 462/524/331 470/530/331 469/532/331
f 468/518/328 461/517/328 469/532/328 476/531/328
f 470/530/335 471/529/335 472/528/335 473/527/335 474/526/335 475/525/335 476/531/335 469/532/335
f 477/533/326 485/534/326 492/535/326 484/536/326
f 483/537/327 491/538/327 490/539/327 482/540/327
f 481/541/328 489/542/328 488/543/328 480/544/328
f 479/545/329 487/546/329 486/547/329 478/548/329
f 484/536/330 492/535/330 491/538/330 483/537/330
f 482/540/331 490/539/331 489/542/331 481/541/331
f 480/544/332 488/543/332 487/546/332 479/545/332
f 478/548/333 486/547/333 485/534/333 477/533/333
f 486/547/335 487/546/335 488/543/335 489/542/335 490/539/335 491/538/335 492/535/335 485/534/335
f 484/536/334 500/549/334 493/550/334 477/533/334
f 482/540/334 498/551/334 499/552/334 483/537/334
f 480/544/334 496/553/334 497/554/334 481/541/334
f 478/548/334 494/555/334 495/556/334 479/545/334
f 483/537/334 499/552/334 500/549/334 484/536/334
f 481/541/334 497/554/334 498/551/334 482/540/334
f 479/545/334 495/556/334 496/553/334 480/544/334
f 477/533/334 493/550/334 494/555/334 478/548/334
f 498/551/329 506/557/329 507/558/329 499/552/329
f 496/553/326 504/559/326 505/560/326 497/554/326
f 494/555/327 502/561/327 503/562/327 495/556/327
f 499/552/332 507/558/332 508/563/332 500/549/332
f 497/554/333 505/560/333 506/557/333 498/551/333
f 495/556/330 503/562/330 504/559/330 496/553/330
f 493/550/331 501/564/331 502/561/331 494/555/331
f 500/549/328 508/563/328 501/564/328 493/550/328
f 502/561/334 501/564/334 508/563/334 507/558/334 506/557/334 505/560/334 504/559/334 503/562/334
f 509/565/336 517/566/336 524/567/336 516/568/336
f 515/569/337 523/570/337 522/571/337 514/572/337
f 513/573/338 521/574/338 520/575/338 512/576/338
f 511/577/339 519/578/339 518/579/339 510/580/339
f 516/568/340 524/567/340 523/570/340 515/569/340
f 514/572/341 522/571/341 521/574/341 513/573/341
f 512/576/342 520/575/342 519/578/342 511/577/342
f 510/580/343 518/579/343 517/566/343 509/565/343
f 518/579/335 519/578/335 520/575/335 521/574/335 522/571/335 523/570/335 524/567/335 517/566/335
f 516/568/334 532/581/334 525/582/334 509/565/334
f 514/572/334 530/583/334 531/584/334 515/569/334
f 512/576/334 528/585/334 529/586/334 513/573/334
f 510/580/334 526/587/334 527/588/334 511/577/334
f 515/569/334 531/584/334 532/581/334 516/568/334
f 513/573/334 529/586/334 530/583/334 514/572/334
f 511/577/334 527/588/334 528/585/334 512/576/334
f 509/565/334 525/582/334 526/587/334 510/580/334
f 530/583/339 538/589/339 539/590/339 531/584/339
f 528/585/336 536/591/336 537/592/336 529/586/336
f 526/587/337 534/593/337 535/594/337 527/588/337
f 531/584/342 539/590/342 540/595/342 532/581/342
f 529/586/343 537/592/343 538/589/343 530/583/343
f 527/588/340 535/594/340 536/591/340 528/585/340
f 525/582/341 533/596/341 534/593/341 526/587/341
f 532/581/338 540/595/338 533/596/338 525/582/338
f 534/593/334 533/596/334 540/595/334 539/590/334 538/589/334 537/592/334 536/591/334 535/594/334
